<svg xmlns="http://www.w3.org/2000/svg" viewBox="-1.15 -1.15 2.3 2.3" role="img" aria-label="check-match">
  <!--
    Produit par « bun src/CI/genere-logo.ts 8 » : c’est une étoile de
    l’application, dessinée par la même géométrie, toutes branches à pleine
    portée. Une branche par part, chacune sa couleur.
  -->
  <rect x="-1.15" y="-1.15" width="2.3" height="2.3" rx="0.45" fill="#15171c"/>
  <g stroke="#15171c" stroke-width="0.02" stroke-linejoin="round">
    <polygon points="0,0 -0.176,-0.425 0,-0.92 0.176,-0.425" fill="#5B0"/>
    <polygon points="0,0 0.176,-0.425 0.651,-0.651 0.425,-0.176" fill="#0C9"/>
    <polygon points="0,0 0.425,-0.176 0.92,0 0.425,0.176" fill="#29E"/>
    <polygon points="0,0 0.425,0.176 0.651,0.651 0.176,0.425" fill="#75E"/>
    <polygon points="0,0 0.176,0.425 0,0.92 -0.176,0.425" fill="#C0B"/>
    <polygon points="0,0 -0.176,0.425 -0.651,0.651 -0.425,0.176" fill="#E33"/>
    <polygon points="0,0 -0.425,0.176 -0.92,0 -0.425,-0.176" fill="#F80"/>
    <polygon points="0,0 -0.425,-0.176 -0.651,-0.651 -0.176,-0.425" fill="#FC0"/>
  </g>
</svg>
